<svg width="20" height="21" viewBox="0 0 20 21" fill="none" xmlns="http://www.w3.org/2000/svg">
<path d="M2.00299 6.79861L9.99999 10.7966L17.997 6.79861C17.9674 6.28906 17.7441 5.8101 17.3728 5.45984C17.0015 5.10958 16.5104 4.91452 16 4.91461H3.99999C3.48958 4.91452 2.99844 5.10958 2.62717 5.45984C2.2559 5.8101 2.03259 6.28906 2.00299 6.79861V6.79861Z" fill="white"/>
<path d="M18 9.03261L10 13.0326L2 9.03261V14.9146C2 15.445 2.21071 15.9537 2.58579 16.3288C2.96086 16.7039 3.46957 16.9146 4 16.9146H16C16.5304 16.9146 17.0391 16.7039 17.4142 16.3288C17.7893 15.9537 18 15.445 18 14.9146V9.03261Z" fill="white"/>
</svg>
